<svg width="32" height="29" viewBox="0 0 32 29" fill="none" xmlns="http://www.w3.org/2000/svg">
<path d="M27.5495 0.0605469H3.93047C1.89554 0.0605469 0.23999 1.55588 0.23999 3.39388V24.7272C0.23999 26.5652 1.89554 28.0605 3.93047 28.0605H27.5495C29.5844 28.0605 31.24 26.5652 31.24 24.7272V3.39388C31.24 1.55588 29.5844 0.0605469 27.5495 0.0605469ZM24.6016 12.2759C24.434 12.2899 24.2643 12.2992 24.0923 12.2992C22.1563 12.2992 20.4549 11.3999 19.4652 10.0405C19.4652 13.6065 19.4652 17.6639 19.4652 17.7319C19.4652 20.8712 16.6471 23.4165 13.1714 23.4165C9.69573 23.4165 6.87768 20.8712 6.87768 17.7319C6.87768 14.5925 9.69573 12.0472 13.1714 12.0472C13.3028 12.0472 13.4312 12.0579 13.5604 12.0652V14.8665C13.4312 14.8525 13.3043 14.8312 13.1714 14.8312C11.397 14.8312 9.95923 16.1299 9.95923 17.7325C9.95923 19.3352 11.397 20.6339 13.1714 20.6339C14.9458 20.6339 16.5128 19.3712 16.5128 17.7685C16.5128 17.7052 16.5438 4.70588 16.5438 4.70588H19.508C19.787 7.09988 21.9267 8.98921 24.6016 9.16255V12.2759Z" fill="black"/>
</svg>
